<svg width="460" height="93" viewBox="0 0 460 93" fill="none" xmlns="http://www.w3.org/2000/svg">
<g clip-path="url(#clip0_2650_307)">
<path d="M28.03 18.95H48.64V57.67C48.64 65.83 41.96 72.5 33.8 72.5H32.98C25.97 72.09 20.28 66.9 19.21 60.14C19.05 59.32 18.96 58.49 18.96 57.67H0C0 68.96 5.52 78.93 14.02 85.02C19.38 88.89 25.89 91.2 32.98 91.45H33.8C47.16 91.45 58.7 83.71 64.14 72.5C66.37 68.05 67.6 63.03 67.6 57.67V0H28.03V18.95Z" fill="#000"/>
<path d="M118.74 30.9C114.45 28.76 109.67 27.6 104.56 27.6C86.83 27.6 72.4 42.02 72.4 59.73C72.4 77.44 86.83 91.86 104.56 91.86C109.67 91.86 114.45 90.71 118.74 88.56V91.44H137.37V28.01H118.74V30.89V30.9ZM106.04 73.74C98.21 73.74 91.86 67.4 91.86 59.57C91.86 51.74 98.21 45.4 106.04 45.4C113.87 45.4 120.22 51.74 120.22 59.57C120.22 67.4 113.87 73.74 106.04 73.74Z" fill="#000"/>
<path d="M255.14 30.9C250.85 28.76 246.07 27.6 240.96 27.6C223.23 27.6 208.8 42.02 208.8 59.73C208.8 77.44 223.23 91.86 240.96 91.86C246.07 91.86 250.85 90.71 255.14 88.56V91.44H273.77V0H255.14V30.9ZM242.45 73.74C234.62 73.74 228.27 67.4 228.27 59.57C228.27 51.74 234.62 45.4 242.45 45.4C250.28 45.4 256.63 51.74 256.63 59.57C256.63 67.4 250.28 73.74 242.45 73.74Z" fill="#000"/>
<path d="M324.4 30.9C320.11 28.76 315.33 27.6 310.22 27.6C292.49 27.6 278.07 42.02 278.07 59.73C278.07 77.44 292.5 91.86 310.22 91.86C315.33 91.86 320.11 90.71 324.4 88.56V91.44H343.03V28.01H324.4V30.89V30.9ZM311.7 73.74C303.87 73.74 297.52 67.4 297.52 59.57C297.52 51.74 303.87 45.4 311.7 45.4C319.53 45.4 325.88 51.74 325.88 59.57C325.88 67.4 319.53 73.74 311.7 73.74Z" fill="#000"/>
<path d="M449.97 37.57C447.25 34.85 444.2 32.71 440.98 31.23C432.16 27.03 421.77 27.03 412.95 31.23C409.73 32.71 406.77 34.77 404.13 37.41C404.05 37.33 403.88 37.16 403.8 37.08C401.08 34.36 398.03 32.3 394.81 30.74C386.4 26.7 376.51 26.54 367.93 30.16V28.02H348.97V91.46H367.93V54.3C368.59 52.73 369.58 51.33 370.82 50.02C376.26 44.58 385.17 44.58 390.61 50.02C392.67 52.08 393.91 54.55 394.49 57.19C394.65 58.1 394.74 59 394.74 59.91V91.47H412.88V59.91C412.88 59.09 413.05 58.34 413.21 57.52C413.79 55.05 415.02 52.58 417 50.68C422.44 45.24 431.35 45.24 436.79 50.68C439.51 53.4 440.92 57.02 440.92 60.57V91.47H459.06V55.38C458.07 48.87 455.02 42.61 449.99 37.58L449.97 37.57Z" fill="#000"/>
<path d="M187.9 67.56C187.26 68.7 186.44 69.77 185.48 70.74C181.46 74.76 177.35 76.44 172.25 75.04L202.35 43.03C201.04 40.84 199.44 38.8 197.57 36.94C195.71 35.08 193.67 33.47 191.48 32.16C179.01 24.55 162.49 26.16 151.68 36.94C140.9 47.75 139.32 64.24 146.9 76.74C148.21 78.9 149.81 80.97 151.68 82.83C153.54 84.69 155.61 86.3 157.77 87.61C170.27 95.19 186.76 93.61 197.57 82.83C200.45 79.95 202.7 76.65 204.24 73.13L187.89 67.56H187.9ZM163.78 49.03C167.8 45.01 173.48 43.67 178.58 45.07L159.81 63.84C158.41 58.74 159.75 53.06 163.77 49.04L163.78 49.03Z" fill="#000"/>
</g>
<defs>
<clipPath id="clip0_2650_307">
<rect width="459.04" height="92.31" fill="white"/>
</clipPath>
</defs>
</svg>
