<svg width="24" height="24" viewBox="0 0 24 24" fill="none" xmlns="http://www.w3.org/2000/svg">
<path fill-rule="evenodd" clip-rule="evenodd" d="M2.35001 4.0001C2.35001 3.08883 3.08874 2.3501 4.00001 2.3501H20C20.9113 2.3501 21.65 3.08883 21.65 4.0001V20.0001C21.65 20.9114 20.9113 21.6501 20 21.6501H4.00001C3.08874 21.6501 2.35001 20.9114 2.35001 20.0001V4.0001ZM11.5719 14.4893C11.817 14.7037 12.1829 14.7037 12.428 14.4893L16.428 10.9893L15.5719 10.0109L12.65 12.5676V6.00009H11.35V12.5676L8.42799 10.0109L7.57193 10.9893L11.5719 14.4893ZM18 17.6501L6.00003 17.6501V16.3501L18 16.3501V17.6501Z" fill="currentColor"/>
</svg>
