<svg width="24" height="24" viewBox="0 0 24 24" fill="none" xmlns="http://www.w3.org/2000/svg">
<path fill-rule="evenodd" clip-rule="evenodd" d="M13.0815 4.09106C12.4671 3.55571 11.5453 3.5332 10.911 4.06569L2.93906 10.7586C2.56564 11.0721 2.35 11.5347 2.35 12.0223V20.0001C2.35 20.9114 3.08873 21.6501 4 21.6501H20C20.9113 21.6501 21.65 20.9114 21.65 20.0001V12.029C21.65 11.5382 21.4346 11.0722 21.0511 10.7568C19.7304 9.67012 15.1629 5.90461 13.0815 4.09106ZM11.7469 5.06133C11.8808 4.94892 12.0857 4.94768 12.2275 5.0712C14.326 6.89962 18.9101 10.6786 20.2252 11.7607C20.3041 11.8256 20.35 11.9211 20.35 12.029V20.0001C20.35 20.1934 20.1933 20.3501 20 20.3501H15.65V16.0001C15.65 15.0889 14.9113 14.3501 14 14.3501H10C9.08873 14.3501 8.35 15.0889 8.35 16.0001V20.3501H4C3.8067 20.3501 3.65 20.1934 3.65 20.0001V12.0223C3.65 11.9189 3.69574 11.8208 3.77495 11.7543L11.7469 5.06133ZM9.65 16.0001C9.65 15.8068 9.8067 15.6501 10 15.6501H14C14.1933 15.6501 14.35 15.8068 14.35 16.0001V20.3501H9.65V16.0001Z" fill="currentColor"/>
</svg>
