<svg width="24" height="24" viewBox="0 0 24 24" fill="none" xmlns="http://www.w3.org/2000/svg">
<path fill-rule="evenodd" clip-rule="evenodd" d="M6.34706 4.31683C7.84816 2.83223 9.88186 2 12.0001 2C14.1183 2 16.1518 2.83211 17.6529 4.31672C19.1544 5.80175 19.9999 7.81843 19.9999 9.9233C19.9999 12.6396 18.8154 15.0591 17.4548 16.9508C16.0892 18.8495 14.4867 20.2997 13.5105 21.0991C13.4941 21.1125 13.4774 21.1262 13.4603 21.1404C13.239 21.323 12.9509 21.5607 12.542 21.6758C12.2086 21.7697 11.7911 21.7697 11.4577 21.6758C11.0494 21.5609 10.76 21.322 10.5405 21.1408C10.5231 21.1264 10.5062 21.1125 10.4897 21.0989C9.5134 20.2996 7.91092 18.8493 6.54525 16.9505C5.18463 15.0588 4 12.6392 4 9.92285C4 7.81788 4.84561 5.80179 6.34706 4.31683ZM9 9C9 7.34315 10.3431 6 12 6C13.6569 6 15 7.34315 15 9C15 10.6569 13.6569 12 12 12C10.3431 12 9 10.6569 9 9Z" fill="#121212"/>
</svg>
