<svg width="24" height="24" viewBox="0 0 24 24" fill="none" xmlns="http://www.w3.org/2000/svg">
<path fill-rule="evenodd" clip-rule="evenodd" d="M4.00001 2.3501C3.08874 2.3501 2.35001 3.08883 2.35001 4.0001V16.0001H3.65001V4.0001C3.65001 3.8068 3.80671 3.6501 4.00001 3.6501H20C20.1933 3.6501 20.35 3.8068 20.35 4.0001V20.0001C20.35 20.1934 20.1933 20.3501 20 20.3501H8.00001V21.6501H20C20.9113 21.6501 21.65 20.9114 21.65 20.0001V4.0001C21.65 3.08883 20.9113 2.3501 20 2.3501H4.00001ZM12.0001 11.3501H6.23535V12.6501H10.4308L3.54044 19.5405L4.45967 20.4597L11.3501 13.5693V17.7648H12.6501V12.0001C12.6501 11.6411 12.359 11.3501 12.0001 11.3501Z" fill="currentColor"/>
</svg>
