<svg width="24" height="24" viewBox="0 0 24 24" fill="none" xmlns="http://www.w3.org/2000/svg">
<path d="M22.6616 6.75443C22.2387 5.12376 21.4545 4.4979 20.0072 4.27233C19.1765 4.15175 15.1763 4 11.9983 4C8.82029 4 4.82089 4.15175 3.98938 4.27233C3.31947 4.32443 2.68899 4.60037 2.20552 5.05304C1.72204 5.50571 1.41556 6.10705 1.33838 6.75443C1.13301 8.30725 1.02002 9.87024 1 11.4357V11.6883C1.02017 13.2545 1.13316 14.8183 1.33838 16.372C1.41588 17.0188 1.72258 17.6194 2.20611 18.0712C2.68964 18.523 3.31996 18.798 3.98938 18.8492C4.82005 18.9697 8.82621 19.1215 12.0059 19.1215H11.9915C15.1721 19.1215 19.1732 18.9681 20.0072 18.8475C20.6768 18.796 21.3074 18.521 21.7914 18.0693C22.2754 17.6177 22.5829 17.0172 22.6616 16.3703C22.8661 14.8166 22.9791 13.2528 23 11.6867V11.4365C22.9792 9.87081 22.8663 8.30759 22.6616 6.75443ZM9.36336 14.2951V8.82805L14.6341 11.4972L9.36336 14.2951Z" fill="currentColor"/>
</svg>
