<svg width="24" height="24" viewBox="0 0 24 24" fill="none" xmlns="http://www.w3.org/2000/svg">
<path fill-rule="evenodd" clip-rule="evenodd" d="M15.3472 3.6501C14.563 3.6501 13.8142 3.95384 13.2647 4.48936L5.02914 12.5155C4.1439 13.3782 3.64975 14.5447 3.64975 15.7573C3.64975 16.97 4.1439 18.1365 5.02914 18.9992C5.91495 19.8625 7.11986 20.3503 8.37962 20.3503C9.63801 20.3503 10.8417 19.8635 11.7272 19.002L20.5404 10.1888L21.4596 11.1081L12.6375 19.9302C11.5054 21.0335 9.97352 21.6503 8.37962 21.6503C6.78573 21.6503 5.25385 21.0334 4.12182 19.9302C2.98922 18.8264 2.34975 17.3257 2.34975 15.7573C2.34975 14.1889 2.98922 12.6882 4.12182 11.5844L12.3574 3.55836C13.1531 2.78288 14.2289 2.3501 15.3472 2.3501C16.4654 2.3501 17.5412 2.78288 18.3369 3.55836C19.1332 4.3344 19.5837 5.39055 19.5837 6.49544C19.5837 7.60034 19.1332 8.65649 18.3369 9.43253L10.0924 17.4586C10.0923 17.4587 10.0925 17.4585 10.0924 17.4586C9.63298 17.9062 9.01322 18.155 8.37066 18.155C7.72799 18.155 7.10837 17.9063 6.64895 17.4586C6.18897 17.0103 5.92737 16.3987 5.92737 15.7573C5.92737 15.1159 6.18897 14.5043 6.64895 14.056L14.2575 6.64975L15.1643 7.58129L7.55627 14.987C7.55624 14.9871 7.55631 14.987 7.55627 14.987C7.34371 15.1942 7.22737 15.4717 7.22737 15.7573C7.22737 16.043 7.34365 16.3204 7.55627 16.5276C7.76947 16.7354 8.06211 16.855 8.37066 16.855C8.67921 16.855 8.97185 16.7354 9.18505 16.5276L17.4296 8.50152C17.9785 7.96655 18.2837 7.24459 18.2837 6.49544C18.2837 5.74629 17.9785 5.02433 17.4296 4.48936C16.8801 3.95384 16.1313 3.6501 15.3472 3.6501Z" fill="currentColor"/>
</svg>
