<svg width="120" height="95" viewBox="0 0 120 95" fill="none" xmlns="http://www.w3.org/2000/svg">
<g opacity="0.8" clip-path="url(#clip0_85_22013)">
<path d="M61.2751 2.68997C68.7443 5.4065 74.5098 10.2682 77.7717 15.0001C80.6337 19.1502 82.8723 23.3366 87.3808 26.3804C95.7538 32.0368 112.204 32.5666 118.312 46.9024C121.371 54.0807 120.197 61.3888 115.445 67.7257C112.23 72.016 104.729 76.6284 95.6811 79.1943C79.0599 83.9054 70.2402 81.1889 67.5393 83.1938C65.2019 84.9286 63.8462 90.5123 57.8107 94.1326C55.7122 95.3896 52.9593 95.2754 53.7385 92.6211C54.6422 89.5306 55.8525 85.0741 53.4372 82.9653C50.4038 80.3111 29.7468 85.0014 12.3153 71.1954C-3.79173 58.4386 -3.68785 33.8599 10.2792 17.0985C23.8514 0.804497 44.8721 -3.2729 61.2751 2.68997Z" fill="#22D4DD"/>
</g>
<defs>
<clipPath id="clip0_85_22013">
<rect width="120" height="94.8241" fill="white" transform="translate(0 0.0878906)"/>
</clipPath>
</defs>
</svg>
