<svg width="100" height="20" viewBox="0 0 100 20" fill="none" xmlns="http://www.w3.org/2000/svg">
<g clip-path="url(#clip0_365_24780)">
<path d="M6.10751 4.10526H10.5966V12.4956C10.5966 14.2632 9.14142 15.7105 7.36429 15.7105H7.18349C5.65772 15.6228 4.41857 14.4956 4.18486 13.0307C4.14958 12.8509 4.13194 12.6754 4.13194 12.4956H0C0 14.943 1.20386 17.1009 3.05155 18.4211C4.22014 19.2588 5.64008 19.7588 7.18349 19.8114H7.36429C10.2747 19.8114 12.7883 18.1316 13.9745 15.7061C14.4596 14.7412 14.7286 13.6535 14.7286 12.4912V0H6.10751V4.10526Z" fill="currentColor"/>
<path d="M25.8676 6.69294C24.9328 6.22803 23.8921 5.97803 22.7764 5.97803C18.9134 5.97803 15.7693 9.10083 15.7693 12.9386C15.7693 16.7763 18.9134 19.8991 22.7764 19.8991C23.8921 19.8991 24.9328 19.6491 25.8676 19.1842V19.807H29.929V6.07013H25.8676V6.69294ZM23.1027 15.978C21.3961 15.978 20.0115 14.6052 20.0115 12.9079C20.0115 11.2105 21.3961 9.83768 23.1027 9.83768C24.8093 9.83768 26.1939 11.2105 26.1939 12.9079C26.1939 14.6052 24.8093 15.978 23.1027 15.978Z" fill="currentColor"/>
<path d="M55.5805 6.69298C54.6456 6.22807 53.6049 5.97807 52.4893 5.97807C48.6263 5.97807 45.4822 9.10088 45.4822 12.9386C45.4822 16.7763 48.6263 19.8991 52.4893 19.8991C53.6049 19.8991 54.6456 19.6491 55.5805 19.1842V19.807H59.6419V0H55.5805V6.69298ZM52.8156 15.9781C51.109 15.9781 49.7244 14.6053 49.7244 12.9079C49.7244 11.2105 51.109 9.83772 52.8156 9.83772C54.5222 9.83772 55.9068 11.2105 55.9068 12.9079C55.9068 14.6053 54.5222 15.9781 52.8156 15.9781Z" fill="currentColor"/>
<path d="M70.6708 6.69294C69.736 6.22803 68.6953 5.97803 67.5796 5.97803C63.7167 5.97803 60.5769 9.10083 60.5769 12.9386C60.5769 16.7763 63.7211 19.8991 67.5796 19.8991C68.6953 19.8991 69.736 19.6491 70.6708 19.1842V19.807H74.7322V6.07013H70.6708V6.69294ZM67.9059 15.978C66.1993 15.978 64.8147 14.6052 64.8147 12.9079C64.8147 11.2105 66.1993 9.83768 67.9059 9.83768C69.6125 9.83768 70.9972 11.2105 70.9972 12.9079C70.9972 14.6052 69.6125 15.978 67.9059 15.978Z" fill="currentColor"/>
<path d="M98.0244 8.14039C97.4335 7.55267 96.7677 7.08776 96.0665 6.76758C94.1439 5.8553 91.8817 5.8553 89.959 6.76758C89.2579 7.08776 88.614 7.53513 88.0364 8.1053C88.0187 8.08776 87.9834 8.05267 87.9658 8.03513C87.3749 7.44741 86.709 7.00004 86.0079 6.66232C84.1778 5.78951 82.0214 5.75004 80.1517 6.53951V6.0746H76.0198V19.8202H80.1517V11.7676C80.2972 11.4299 80.5089 11.1228 80.7823 10.8378C81.9685 9.65793 83.9088 9.65793 85.095 10.8378C85.5448 11.2851 85.8138 11.8202 85.9373 12.3904C85.9726 12.5878 85.9902 12.7851 85.9902 12.9781V19.8158H89.9414V12.9781C89.9414 12.7983 89.9766 12.6404 90.0119 12.4606C90.1398 11.9255 90.4088 11.3904 90.8366 10.9781C92.0228 9.79828 93.9631 9.79828 95.1449 10.9781C95.7402 11.5658 96.0445 12.3509 96.0445 13.1185V19.8114H99.9956V11.9913C99.7795 10.579 99.1181 9.22372 98.02 8.136L98.0244 8.14039Z" fill="currentColor"/>
<path d="M40.9359 14.6402C40.7948 14.8858 40.6184 15.1183 40.4111 15.3288C39.5336 16.2016 38.6384 16.5613 37.5271 16.2587L44.0844 9.32444C43.7978 8.85076 43.4494 8.40778 43.0437 8.00427C42.638 7.60076 42.1927 7.25427 41.7164 6.96918C39 5.32006 35.4016 5.66655 33.0468 8.00427C30.6964 10.3464 30.3569 13.9209 32.0061 16.6271C32.2928 17.0964 32.6411 17.5437 33.0468 17.9473C33.4525 18.3508 33.9023 18.6973 34.3742 18.9823C37.0994 20.6227 40.6889 20.285 43.0437 17.9473C43.6743 17.3201 44.1594 16.6095 44.499 15.8464L40.9359 14.6402ZM35.6794 10.6227C36.557 9.74988 37.7917 9.46041 38.903 9.76304L34.8151 13.8288C34.5109 12.7236 34.8019 11.4911 35.6794 10.6227Z" fill="currentColor"/>
</g>
<defs>
<clipPath id="clip0_365_24780">
<rect width="100" height="20" fill="currentColor"/>
</clipPath>
</defs>
</svg>
