<svg width="80" height="41" viewBox="0 0 80 41" fill="none" xmlns="http://www.w3.org/2000/svg">
<g clip-path="url(#clip0_85_5041)">
<path d="M16.0621 11.7513C14.8626 9.87836 14.4252 8.25677 14.27 5.80314H21.0539H21.061V0.0107422H21.0539H1.40407H1.39701V5.80314H1.40407H8.19156C8.03634 8.25677 7.59889 9.87482 6.39944 11.7513C4.97773 13.9748 2.65291 15.561 0 16.917L3.5913 20.9887C5.25643 20.2594 6.8016 19.3211 8.23037 18.1704C9.34868 17.2711 10.347 16.2868 11.229 15.2282C12.1109 16.2868 13.1058 17.2711 14.2276 18.1704C15.6564 19.3176 17.2051 20.2594 18.8667 20.9887L22.458 16.917C19.8051 15.561 17.4803 13.9748 16.0621 11.7513Z" fill="#363636"/>
<path d="M33.6941 7.2405C32.3818 7.2405 30.7167 7.2405 29.9511 7.2405V0H24.1021V20.0751H29.9511V12.6257C31.0589 12.6257 32.5088 12.6257 33.6941 12.6257V20.0751H39.5432V0H33.6941V7.2405Z" fill="#363636"/>
<path d="M72.8386 6.93625V0.00732422H66.8413V20.0541H72.8386V12.8774H80V6.93625H72.8386Z" fill="#363636"/>
<path d="M55.0056 41H72.7611V23.1802H55.0056V41ZM60.9253 29.1177H66.8449V35.0588H60.9253V29.1177Z" fill="#363636"/>
<path d="M61.599 14.0703H50.2289V6.09689H61.599V0H43.9988V20.0751H61.599V14.0703Z" fill="#363636"/>
</g>
<defs>
<clipPath id="clip0_85_5041">
<rect width="80" height="41" fill="363636"/>
</clipPath>
</defs>
</svg>
