<svg width="144" height="30" viewBox="0 0 144 30" fill="none" xmlns="http://www.w3.org/2000/svg">
<mask id="mask0_1023_13984" style="mask-type:luminance" maskUnits="userSpaceOnUse" x="0" y="0" width="144" height="30">
<path d="M144 0.484375H0V29.5166H144V0.484375Z" fill="white"/>
</mask>
<g mask="url(#mask0_1023_13984)">
<g style="mix-blend-mode:luminosity">
<path d="M8.79481 6.44363H15.2592V18.6231C15.2592 21.1889 13.1636 23.29 10.6046 23.29H10.3442C8.14711 23.1626 6.36274 21.5264 6.0262 19.4C5.97539 19.1389 5.94999 18.8842 5.94999 18.6231H0C0 22.1758 1.73357 25.3082 4.39423 27.2246C6.07699 28.4407 8.12171 29.1665 10.3442 29.2429H10.6046C14.7956 29.2429 18.4151 26.8044 20.1233 23.2836C20.8218 21.8829 21.2092 20.304 21.2092 18.6168V0.484375H8.79481V6.44363Z" fill="#201716"/>
<path d="M37.2496 10.1999C35.9034 9.52501 34.4048 9.16211 32.7983 9.16211C27.2356 9.16211 22.708 13.6952 22.708 19.2661C22.708 24.837 27.2356 29.3701 32.7983 29.3701C34.4048 29.3701 35.9034 29.0072 37.2496 28.3323V29.2364H43.098V9.2958H37.2496V10.1999ZM33.2681 23.6782C30.8107 23.6782 28.8167 21.6855 28.8167 19.2215C28.8167 16.7576 30.8107 14.7649 33.2681 14.7649C35.7256 14.7649 37.7195 16.7576 37.7195 19.2215C37.7195 21.6855 35.7256 23.6782 33.2681 23.6782Z" fill="#201716"/>
<path d="M80.0357 10.2C78.6895 9.52513 77.1909 9.16222 75.5843 9.16222C70.0216 9.16222 65.4941 13.6953 65.4941 19.2662C65.4941 24.8371 70.0216 29.3702 75.5843 29.3702C77.1909 29.3702 78.6895 29.0073 80.0357 28.3324V29.2365H85.8841V0.484375H80.0357V10.2ZM76.0543 23.6783C73.5968 23.6783 71.6028 21.6856 71.6028 19.2216C71.6028 16.7577 73.5968 14.765 76.0543 14.765C78.5116 14.765 80.5056 16.7577 80.5056 19.2216C80.5056 21.6856 78.5116 23.6783 76.0543 23.6783Z" fill="#201716"/>
<path d="M101.766 10.1999C100.42 9.52501 98.9208 9.16211 97.3145 9.16211C91.7517 9.16211 87.2305 13.6952 87.2305 19.2661C87.2305 24.837 91.7581 29.3701 97.3145 29.3701C98.9208 29.3701 100.42 29.0072 101.766 28.3323V29.2364H107.614V9.2958H101.766V10.1999ZM97.7842 23.6782C95.3267 23.6782 93.3328 21.6855 93.3328 19.2215C93.3328 16.7576 95.3267 14.7649 97.7842 14.7649C100.242 14.7649 102.236 16.7576 102.236 19.2215C102.236 21.6855 100.242 23.6782 97.7842 23.6782Z" fill="#201716"/>
<path d="M141.155 12.3019C140.304 11.4487 139.345 10.7739 138.335 10.3091C135.567 8.98484 132.31 8.98484 129.541 10.3091C128.531 10.7739 127.604 11.4233 126.772 12.251C126.747 12.2255 126.696 12.1745 126.67 12.1491C125.82 11.2959 124.861 10.6466 123.851 10.1563C121.216 8.88934 118.111 8.83204 115.418 9.97805V9.30318H109.469V29.2565H115.418V17.5672C115.628 17.0769 115.932 16.6313 116.327 16.2175C118.034 14.5048 120.828 14.5048 122.537 16.2175C123.185 16.8668 123.572 17.6436 123.75 18.4712C123.8 18.7578 123.826 19.0442 123.826 19.3244V29.2501H129.516V19.3244C129.516 19.0634 129.566 18.8341 129.617 18.5731C129.801 17.7963 130.188 17.0196 130.805 16.4212C132.513 14.7086 135.307 14.7086 137.009 16.4212C137.866 17.2743 138.304 18.414 138.304 19.5281V29.2438H143.994V17.8919C143.683 15.8418 142.73 13.8745 141.149 12.2955L141.155 12.3019Z" fill="#201716"/>
<path d="M58.948 21.7367C58.7447 22.0932 58.4908 22.4307 58.1923 22.7363C56.9286 24.0033 55.6396 24.5254 54.0393 24.086L63.4819 14.0202C63.0691 13.3327 62.5675 12.6896 61.9833 12.1039C61.3991 11.5181 60.7577 11.0152 60.0719 10.6013C56.1603 8.20743 50.9786 8.71041 47.5877 12.1039C44.2032 15.5037 43.7141 20.6926 46.0891 24.6209C46.5018 25.3021 47.0035 25.9515 47.5877 26.5372C48.172 27.123 48.8196 27.6259 49.4991 28.0398C53.4234 30.4209 58.5923 29.9307 61.9833 26.5372C62.8914 25.6268 63.5898 24.5954 64.0787 23.4876L58.948 21.7367ZM51.3787 15.9048C52.6423 14.6378 54.4204 14.2177 56.0205 14.6569L50.134 20.5589C49.6959 18.9545 50.115 17.1654 51.3787 15.9048Z" fill="#201716"/>
</g>
</g>
</svg>
