<svg width="166" height="30" viewBox="0 0 166 30" fill="none" xmlns="http://www.w3.org/2000/svg">
<mask id="mask0_1023_13970" style="mask-type:luminance" maskUnits="userSpaceOnUse" x="0" y="0" width="166" height="30">
<path d="M166 0.484375H0V29.5166H166V0.484375Z" fill="white"/>
</mask>
<g mask="url(#mask0_1023_13970)">
<g style="mix-blend-mode:luminosity">
<path d="M20.6252 22.9219H11.0225L11.982 29.5166L19.8295 28.3771L20.6252 22.9297V22.9219Z" fill="#FF008A"/>
<path d="M6.3191 20.3072H24.8849L26.133 11.7146L26.1798 11.4492L5.51562 14.7114L5.52343 14.8597L6.3191 20.3072Z" fill="#FF008A"/>
<path d="M30.5399 8.10924L31.6476 0.499984V0.484375H0L1.77077 12.6748L30.5399 8.10924Z" fill="#FF008A"/>
<path d="M57.5303 29.5188V1.87577L65.37 0.736328V29.5188H57.5303ZM71.8134 29.5188V17.4845C71.8134 16.4622 71.5092 15.6583 70.9163 15.073C70.3157 14.4876 69.5512 14.1911 68.6151 14.1911C67.9833 14.1911 67.4216 14.3237 66.9224 14.5968C66.4231 14.87 66.0409 15.2447 65.7756 15.7207C65.5026 16.2046 65.37 16.7899 65.37 17.4767L62.3043 16.0329C62.3043 14.2613 62.671 12.7395 63.4043 11.4595C64.1375 10.1796 65.1516 9.18846 66.4465 8.48607C67.7337 7.78367 69.2392 7.42468 70.9475 7.42468C72.6559 7.42468 74.2551 7.77587 75.5656 8.48607C76.8683 9.18846 77.8746 10.164 78.5845 11.3893C79.2865 12.6224 79.6453 14.0506 79.6453 15.6738V29.511H71.8056L71.8134 29.5188Z" fill="black"/>
<path d="M127.104 13.9626V7.43043H144.672V13.9626H127.104ZM131.973 29.4622V1.78006L139.812 0.640625V29.4699H131.973V29.4622Z" fill="black"/>
<path d="M145.866 24.7789L156.319 12.1123H165.999L155.546 24.7789H145.866ZM145.866 29.4615V24.771L150.952 23.0619H165.726V29.4615H145.866ZM146.631 13.8292V7.42969H165.999V12.1201L160.913 13.8292H146.638H146.631Z" fill="black"/>
<path d="M45.7591 29.315C44.4798 29.315 43.2004 29.1512 41.9134 28.8156C40.634 28.48 39.4404 28.0195 38.3406 27.4342C37.2407 26.8489 36.3124 26.1777 35.5635 25.4285L39.8617 20.9957C40.5326 21.6668 41.3283 22.1975 42.2644 22.5799C43.2004 22.9701 44.1755 23.1652 45.2053 23.1652C45.6811 23.1652 46.0477 23.1028 46.3129 22.978C46.5782 22.853 46.7108 22.6814 46.7108 22.455C46.7108 22.0648 46.4845 21.776 46.0243 21.5809C45.5641 21.3858 44.9791 21.2063 44.2691 21.0347C43.5593 20.863 42.8104 20.6522 42.0147 20.3868C41.2191 20.1215 40.4624 19.7626 39.7369 19.3021C39.0115 18.8417 38.4264 18.2017 37.9818 17.3822C37.5371 16.5627 37.3109 15.5091 37.3109 14.2292C37.3109 12.9494 37.6775 11.7553 38.4186 10.7407C39.1597 9.7261 40.1972 8.91446 41.5545 8.31352C42.9041 7.71258 44.472 7.41602 46.2505 7.41602C48.0291 7.41602 49.8154 7.72039 51.5161 8.33693C53.2166 8.95348 54.5661 9.86662 55.5646 11.0919L51.2196 15.5247C50.5254 14.7443 49.7609 14.2215 48.9262 13.9561C48.0916 13.6907 47.3973 13.5581 46.8356 13.5581C46.274 13.5581 45.9385 13.6361 45.7279 13.7844C45.5173 13.9404 45.4159 14.1278 45.4159 14.3463C45.4159 14.6507 45.6421 14.9004 46.0867 15.0955C46.5314 15.2906 47.1086 15.4701 47.8185 15.6418C48.5284 15.8135 49.2695 16.032 50.0495 16.313C50.8296 16.594 51.5706 16.9842 52.2805 17.4836C52.9904 17.9832 53.5676 18.6465 54.0123 19.4659C54.4569 20.2854 54.6831 21.3546 54.6831 22.6658C54.6831 24.7027 53.8718 26.3182 52.2571 27.5122C50.6424 28.7063 48.4737 29.3073 45.7435 29.3073L45.7591 29.315Z" fill="black"/>
<path d="M93.3817 29.479C91.1195 29.479 89.1069 29.003 87.3439 28.0353C85.5809 27.0753 84.1846 25.7563 83.1549 24.0784C82.1252 22.4005 81.6104 20.5196 81.6104 18.4203C81.6104 16.3208 82.1174 14.4556 83.1394 12.8089C84.1534 11.1622 85.5498 9.85883 87.3284 8.89889C89.1069 7.93895 91.1117 7.45508 93.3427 7.45508C95.5738 7.45508 97.5787 7.93895 99.3419 8.89889C101.104 9.85883 102.501 11.1622 103.531 12.8089C104.56 14.4556 105.075 16.3287 105.075 18.4203C105.075 20.5118 104.568 22.4005 103.546 24.0784C102.532 25.7563 101.136 27.0753 99.3728 28.0353C97.6096 28.9952 95.6127 29.479 93.374 29.479H93.3817ZM93.3427 22.8063C94.1774 22.8063 94.8951 22.6267 95.5113 22.2678C96.1276 21.9088 96.6116 21.4015 96.9543 20.7381C97.2978 20.0825 97.4696 19.3177 97.4696 18.4593C97.4696 17.6008 97.2901 16.8437 96.9311 16.2037C96.5721 15.556 96.0964 15.0566 95.4879 14.6975C94.8873 14.3385 94.1696 14.159 93.335 14.159C92.5002 14.159 91.8137 14.3463 91.1819 14.721C90.55 15.0956 90.0664 15.6029 89.7232 16.2506C89.3799 16.8984 89.2083 17.6476 89.2083 18.5061C89.2083 19.3646 89.3799 20.0825 89.7232 20.7459C90.0664 21.4093 90.5578 21.9166 91.1819 22.2755C91.8137 22.6346 92.5314 22.8141 93.335 22.8141L93.3427 22.8063Z" fill="black"/>
<path d="M120.459 7.42969C118.173 7.42969 116.309 8.05405 114.873 9.28713V7.51554L107.033 8.75643V29.5005H114.873V17.9344C114.873 16.7325 115.162 15.8272 115.732 15.2107C116.301 14.5941 117.096 14.2897 118.119 14.2897C118.657 14.2897 119.148 14.3756 119.585 14.5395C120.022 14.7034 120.358 14.9219 120.599 15.195L125.147 9.10764C124.609 8.53792 123.954 8.11647 123.189 7.84332C122.425 7.57017 121.512 7.4375 120.467 7.4375L120.459 7.42969Z" fill="black"/>
</g>
</g>
</svg>
