<svg width="172" height="30" viewBox="0 0 172 30" fill="none" xmlns="http://www.w3.org/2000/svg">
<g style="mix-blend-mode:luminosity" clip-path="url(#clip0_1212_503)">
<path d="M21.3707 23.1855H11.4209L12.4151 30.0001L20.5463 28.8226L21.3707 23.1936V23.1855Z" fill="#FF008A"/>
<path d="M6.54687 20.4833H25.7837L27.0769 11.6043L27.1254 11.3301L5.71436 14.701L5.72244 14.8543L6.54687 20.4833Z" fill="#FF008A"/>
<path d="M31.6438 7.87903L32.7915 0.016129V0H0L1.83477 12.5968L31.6438 7.87903Z" fill="#FF008A"/>
<path d="M59.6099 30.0017V1.43719L67.733 0.259766V30.0017H59.6099ZM74.4093 30.0017V17.5662C74.4093 16.5098 74.0941 15.6791 73.4798 15.0743C72.8574 14.4694 72.0653 14.163 71.0954 14.163C70.4407 14.163 69.8587 14.3001 69.3414 14.5823C68.8242 14.8646 68.4281 15.2517 68.1533 15.7436C67.8704 16.2436 67.733 16.8485 67.733 17.5582L64.5565 16.0662C64.5565 14.2356 64.9364 12.663 65.6961 11.3404C66.4559 10.0178 67.5067 8.99364 68.8484 8.26783C70.182 7.54202 71.742 7.17106 73.5121 7.17106C75.2822 7.17106 76.9392 7.53396 78.2971 8.26783C79.6469 8.99364 80.6896 10.0017 81.4251 11.2678C82.1525 12.542 82.5243 14.0178 82.5243 15.6952V29.9936H74.4012L74.4093 30.0017Z" fill="black"/>
<path d="M131.7 13.9282V7.17824H149.902V13.9282H131.7ZM136.743 29.9444V1.33953L144.866 0.162109V29.9524H136.743V29.9444Z" fill="black"/>
<path d="M151.139 25.1052L161.969 12.0164H172L161.169 25.1052H151.139ZM151.139 29.9439V25.0971L156.409 23.331H171.717V29.9439H151.139ZM151.931 13.7906V7.17773H172V12.0245L166.73 13.7906H151.939H151.931Z" fill="black"/>
<path d="M47.4132 29.7911C46.0877 29.7911 44.7621 29.6218 43.4284 29.275C42.1029 28.9282 40.8662 28.4524 39.7266 27.8476C38.5869 27.2428 37.6251 26.5492 36.8491 25.775L41.3027 21.1944C41.9978 21.8879 42.8222 22.4363 43.7922 22.8315C44.7621 23.2347 45.7724 23.4363 46.8393 23.4363C47.3324 23.4363 47.7123 23.3718 47.9871 23.2428C48.2619 23.1137 48.3993 22.9363 48.3993 22.7024C48.3993 22.2992 48.1649 22.0008 47.688 21.7992C47.2112 21.5976 46.6049 21.4121 45.8694 21.2347C45.1339 21.0573 44.358 20.8395 43.5335 20.5653C42.7091 20.2911 41.9251 19.9202 41.1734 19.4444C40.4217 18.9686 39.8155 18.3073 39.3548 17.4605C38.894 16.6137 38.6596 15.525 38.6596 14.2024C38.6596 12.8799 39.0395 11.646 39.8074 10.5976C40.5752 9.54921 41.6502 8.7105 43.0566 8.08953C44.4549 7.46856 46.0796 7.16211 47.9224 7.16211C49.7653 7.16211 51.6162 7.47663 53.3783 8.11372C55.1403 8.75082 56.5386 9.69437 57.5732 10.9605L53.0711 15.5411C52.3518 14.7347 51.5596 14.1944 50.6948 13.9202C49.8299 13.646 49.1106 13.5089 48.5286 13.5089C47.9467 13.5089 47.5991 13.5895 47.3809 13.7428C47.1627 13.904 47.0576 14.0976 47.0576 14.3234C47.0576 14.6379 47.292 14.896 47.7527 15.0976C48.2134 15.2992 48.8115 15.4847 49.5471 15.6621C50.2826 15.8395 51.0504 16.0653 51.8587 16.3557C52.667 16.646 53.4348 17.0492 54.1704 17.5653C54.9059 18.0815 55.504 18.7669 55.9647 19.6137C56.4254 20.4605 56.6598 21.5653 56.6598 22.9202C56.6598 25.025 55.8192 26.6944 54.1461 27.9282C52.473 29.1621 50.226 29.7831 47.3971 29.7831L47.4132 29.7911Z" fill="black"/>
<path d="M96.7583 29.9612C94.4143 29.9612 92.329 29.4693 90.5023 28.4693C88.6756 27.4773 87.2288 26.1144 86.1619 24.3805C85.095 22.6467 84.5615 20.7031 84.5615 18.5338C84.5615 16.3644 85.0869 14.437 86.1457 12.7354C87.1965 11.0338 88.6433 9.687 90.4861 8.69506C92.329 7.70312 94.4063 7.20312 96.7179 7.20312C99.0296 7.20312 101.107 7.70312 102.934 8.69506C104.76 9.687 106.207 11.0338 107.274 12.7354C108.341 14.437 108.874 16.3725 108.874 18.5338C108.874 20.6951 108.349 22.6467 107.29 24.3805C106.239 26.1144 104.793 27.4773 102.966 28.4693C101.139 29.4612 99.07 29.9612 96.7502 29.9612H96.7583ZM96.7179 23.066C97.5828 23.066 98.3264 22.8805 98.9649 22.5096C99.6034 22.1386 100.105 21.6144 100.46 20.9289C100.816 20.2515 100.994 19.4612 100.994 18.5741C100.994 17.687 100.808 16.9047 100.436 16.2434C100.064 15.5741 99.5711 15.058 98.9407 14.687C98.3183 14.316 97.5747 14.1305 96.7098 14.1305C95.845 14.1305 95.1337 14.3241 94.479 14.7112C93.8243 15.0983 93.3232 15.6225 92.9675 16.2918C92.6119 16.9612 92.4341 17.7354 92.4341 18.6225C92.4341 19.5096 92.6119 20.2515 92.9675 20.937C93.3232 21.6225 93.8324 22.1467 94.479 22.5176C95.1337 22.8886 95.8773 23.0741 96.7098 23.0741L96.7179 23.066Z" fill="black"/>
<path d="M124.813 7.17773C122.445 7.17773 120.513 7.8229 119.026 9.09709V7.26644L110.903 8.5487V29.9842H119.026V18.0326C119.026 16.7906 119.325 15.8552 119.915 15.2181C120.505 14.581 121.33 14.2664 122.388 14.2664C122.946 14.2664 123.455 14.3552 123.908 14.5245C124.361 14.6939 124.708 14.9197 124.959 15.2019L129.671 8.91161C129.113 8.3229 128.434 7.88741 127.642 7.60515C126.85 7.3229 125.904 7.1858 124.821 7.1858L124.813 7.17773Z" fill="black"/>
</g>
<defs>
<clipPath id="clip0_1212_503">
<rect width="172" height="30" fill="white"/>
</clipPath>
</defs>
</svg>
