<svg width="52" height="40" viewBox="0 0 52 40" fill="none" xmlns="http://www.w3.org/2000/svg">
<mask id="mask0_1023_13948" style="mask-type:luminance" maskUnits="userSpaceOnUse" x="0" y="0" width="52" height="40">
<path d="M52 0H0V40H52V0Z" fill="white"/>
</mask>
<g mask="url(#mask0_1023_13948)">
<g style="mix-blend-mode:luminosity">
<path d="M42.9068 27.9301C44.7596 25.8857 46.3442 23.669 47.5144 21.3291C48.0751 20.1961 48.5626 19.0877 48.9283 18.004C50.5861 13.1271 50.196 8.74288 47.8069 5.29461C44.7352 0.836478 38.9574 -1.06007 33.7891 0.664064C31.7169 1.35372 30.2298 2.60988 28.9377 3.71825C28.2795 4.28475 27.6456 4.82663 26.963 5.24535C24.6227 6.74781 21.7216 7.60988 18.528 7.75766C16.0901 7.88081 12.9452 8.17638 10.0685 9.38328C5.92411 11.1567 2.63297 14.3833 1.07273 18.2256C0.755806 19.0138 0.487639 19.8513 0.316988 20.6887C6.31511e-05 22.1173 -0.0974521 23.5705 6.31362e-05 24.999C0.414503 30.738 4.24198 35.8118 9.99537 38.201C11.7019 38.9153 13.5303 39.3586 15.4806 39.5557C21.7703 40.1961 28.4014 39.9498 28.4014 39.9498C41.4197 39.9498 51.9757 36.9449 51.9757 33.2256C51.9757 31.0828 48.4164 29.1616 42.8824 27.9301H42.9068Z" fill="#231F20"/>
<path d="M46.5144 17.142C46.1731 18.1765 45.7343 19.1864 45.2467 20.147C41.2974 28.0041 32.9842 33.8415 24.6954 36.1322C20.2828 37.3391 15.3339 37.61 10.9945 35.812C6.65506 34.014 2.9251 29.8268 2.55942 24.8021C2.4619 23.5952 2.55942 22.3883 2.82759 21.2307C2.97386 20.541 3.16889 19.8514 3.43706 19.211C4.82665 15.812 7.67897 13.2011 11.0676 11.7479C13.4324 10.7381 16.114 10.4425 18.6494 10.3194C22.0137 10.147 25.4511 9.23563 28.3278 7.38834C30.5219 5.98439 32.0334 3.91543 34.5688 3.07799C38.6401 1.72331 43.2233 3.15188 45.7099 6.74794C47.904 9.92528 47.6846 13.6938 46.5144 17.1667V17.142Z" fill="#ED1C24"/>
<path d="M36.4224 4.48323C36.4224 4.48323 36.4712 4.50786 36.4712 4.5325C36.5687 4.63102 36.6174 4.7788 36.593 4.90195C36.5687 5.02511 36.4224 5.17289 36.3005 5.24678C36.1542 5.3453 35.9836 5.39456 35.8373 5.46846C35.6667 5.54235 35.496 5.61624 35.3253 5.69013C34.6427 6.03496 33.9601 6.45368 33.3263 6.8724C33.2288 6.94629 33.1069 7.02018 33.0094 7.06944C32.6924 7.26649 32.3755 7.46353 32.0342 7.66057C31.8636 7.7591 31.6929 7.83299 31.5223 7.93151C31.3272 8.03003 31.1078 8.15318 30.8884 8.20245C30.8396 8.20245 30.7909 8.20245 30.7421 8.20245C30.7178 8.20245 30.669 8.20245 30.6446 8.17782C30.4983 8.05466 30.6446 7.83299 30.7178 7.70984C30.7909 7.58668 30.864 7.4389 30.9615 7.31575C31.3272 6.74924 31.7417 6.232 32.1805 5.73939C32.3999 5.49309 32.6437 5.27141 32.9118 5.07437C33.4726 4.65565 34.1064 4.31082 34.8134 4.2123C34.8865 4.2123 34.9597 4.2123 35.0328 4.2123C35.4716 4.18767 36.0323 4.2123 36.398 4.50786L36.4224 4.48323Z" fill="white"/>
<path d="M12.3846 18.3501C12.2383 18.3501 12.0677 18.3255 11.9214 18.3008C11.0194 18.153 9.87361 17.759 9.62982 16.7491C9.58106 16.5767 9.58105 16.4043 9.58105 16.2319C9.65419 15.3698 10.288 14.6063 10.9463 14.1136C11.7995 13.4486 12.8478 13.0299 13.8717 12.7343C15.7489 12.1925 17.6992 12.1186 19.6251 11.9215C21.551 11.7245 23.4038 11.355 25.2322 10.8131C26.1343 10.5422 26.9875 10.1974 27.8408 9.82793C27.9871 9.77866 28.2552 9.65551 28.4015 9.70477C29.011 9.87719 27.1582 11.4289 27.0119 11.5767C25.3298 12.9067 23.5501 14.1136 21.7461 15.2466C21.0635 15.6654 20.3565 16.0595 19.6251 16.4289C18.5037 16.9954 17.3335 17.4141 16.139 17.7836C14.9444 18.153 13.6279 18.4732 12.3602 18.3747L12.3846 18.3501Z" fill="white"/>
<path d="M47.3922 12.783C47.3922 12.6352 47.3922 12.5121 47.3922 12.3643C47.3922 12.315 47.3922 12.2904 47.3922 12.2411C47.3922 11.9948 47.3922 11.7732 47.3678 11.5269C47.3678 11.453 47.3678 11.3791 47.3678 11.3052C47.3678 11.2067 47.3678 11.0835 47.3434 10.985C47.3434 10.8865 47.3434 10.8126 47.2947 10.714C47.2947 10.6155 47.2703 10.517 47.2459 10.4185C47.2215 10.2461 47.1728 10.0737 47.1484 9.90124C47.1484 9.82735 47.124 9.75345 47.0996 9.67956C47.0752 9.55641 47.0265 9.43326 47.0021 9.3101C47.0021 9.23621 46.9534 9.16232 46.929 9.08843C46.8802 8.94065 46.8315 8.81749 46.7827 8.66971C46.7827 8.62045 46.7583 8.57119 46.7339 8.52193C46.6608 8.34951 46.5877 8.15247 46.4902 7.98005C46.4658 7.93079 46.4414 7.88153 46.417 7.83227C46.3439 7.68449 46.2708 7.56134 46.1976 7.41355C46.1732 7.36429 46.1489 7.31503 46.1001 7.24114C46.0026 7.06873 45.8807 6.87168 45.7588 6.69927C44.9543 5.54163 43.9304 4.60567 42.7846 3.91602C47.5384 7.70912 45.4175 14.6057 45.4175 14.6057C43.8329 20.3446 38.9083 27.7091 25.5488 32.7091C17.2356 35.5663 10.4095 35.6648 5.24121 31.4037C6.72832 33.3003 8.75176 34.8027 11.019 35.7633C15.3584 37.5613 20.3073 37.315 24.7199 36.0835C33.0331 33.8175 41.3218 27.9554 45.2712 20.0983C45.7588 19.1377 46.1976 18.1278 46.5389 17.0934C47.0021 15.6894 47.319 14.2608 47.3922 12.8076C47.3922 12.7584 47.3922 12.7337 47.3922 12.6845V12.783Z" fill="#AF1E23"/>
<path d="M40.2734 18.1278C39.8346 14.852 38.2012 12.5859 38.0305 12.3396C37.6892 11.8717 37.1773 11.5761 36.5922 11.4776C36.0071 11.4037 35.4464 11.5515 34.9832 11.8963C34.52 12.2411 34.2274 12.7584 34.1299 13.3495C34.0568 13.9406 34.2031 14.5071 34.5444 14.9751C34.5444 14.9751 35.6658 16.5515 35.9583 18.719C35.9096 18.719 35.8608 18.719 35.7877 18.719C35.7877 18.719 35.7389 18.719 35.7146 18.719C35.1295 18.719 34.5931 18.9653 34.1787 19.384C33.7642 19.8027 33.5448 20.3692 33.5692 20.9357C33.5936 22.9308 34.52 23.7682 35.2757 24.113C35.617 24.2608 35.9827 24.3593 36.3728 24.3593C37.3967 24.3593 38.2012 23.7928 38.4937 23.5219C38.4937 23.5219 38.5181 23.4973 38.5425 23.4726C40.6878 21.5022 40.3221 18.6697 40.2246 18.1278H40.2734Z" fill="#231F20"/>
<path d="M34.2032 21.0832C32.9598 20.9847 31.9359 21.9946 31.814 23.3492C31.7165 24.7285 32.5942 25.8615 33.8375 25.9601C33.8862 25.9601 33.935 25.9601 33.9837 25.9601C34.5932 25.9601 35.1783 25.6891 35.6171 25.1719C35.9584 24.7778 36.1778 24.2359 36.2266 23.6694C36.3241 22.2901 35.4465 21.1571 34.2032 21.0586V21.0832Z" fill="#231F20"/>
<path d="M36.3977 22.7093C36.2514 22.7093 36.1051 22.6846 35.9589 22.6108C35.2031 22.2659 35.2031 21.2314 35.2031 20.8866C35.2031 20.5664 35.4469 20.3201 35.7638 20.3201C36.0808 20.3201 36.3246 20.5664 36.3246 20.8866C36.3246 21.0344 36.3246 21.2068 36.3733 21.3546C36.3733 21.4285 36.4221 21.5516 36.5196 21.5516C36.5683 21.5516 36.6171 21.527 36.6659 21.5024C37.1534 21.1083 37.446 20.4925 37.5435 19.8768C37.6166 19.4827 37.6166 19.064 37.5679 18.6452C37.5679 18.6206 37.5679 18.5713 37.5679 18.5467C37.2266 15.8866 35.837 13.9901 35.837 13.9901C35.6419 13.7438 35.6907 13.3743 35.9589 13.2019C36.2027 13.0048 36.5683 13.0541 36.739 13.325C36.8121 13.3989 38.2992 15.4679 38.6893 18.3989C38.6893 18.4728 39.1281 20.7881 37.5191 22.2906C37.446 22.3644 36.9584 22.7339 36.4221 22.7339L36.3977 22.7093Z" fill="white"/>
<path d="M24.2079 25.5916C24.1104 23.3994 23.2571 21.4783 21.8188 20.2221C20.673 19.2122 19.3077 18.7196 17.9425 18.8428C16.1141 18.9906 13.0668 20.1728 13.3349 26.3305C13.4568 29.163 14.237 31.2073 15.6022 32.4389C16.431 33.1531 17.4062 33.5472 18.4545 33.5472C18.5276 33.5472 18.6008 33.5472 18.6739 33.5472C18.7227 33.5472 18.7714 33.5472 18.8202 33.5472C21.8919 33.3009 24.3542 29.6556 24.1591 25.6408L24.2079 25.5916ZM17.9669 26.0842C17.8938 24.2615 18.1863 23.6211 18.2595 23.4733H18.3082C18.3082 23.4733 18.5276 23.5226 18.747 23.695C19.2102 24.1137 19.5272 24.8773 19.5515 25.7886C19.6247 27.2664 18.9421 28.3994 18.5276 28.7443C18.3326 28.4241 17.9913 27.6113 17.9182 26.0842H17.9669Z" fill="#231F20"/>
<path d="M25.8176 27.807C25.4763 27.1666 24.8912 26.7479 24.2086 26.6493C22.9652 26.4769 21.8438 27.4129 21.6488 28.8168C21.5756 29.3833 21.6488 29.9745 21.9169 30.4424C22.2582 31.0828 22.8433 31.5016 23.5259 31.6001C23.6235 31.6001 23.721 31.6001 23.8185 31.6001C24.4036 31.6001 24.9643 31.3538 25.3787 30.9104C25.7688 30.5163 26.0126 29.9991 26.0857 29.408C26.1589 28.8415 26.0857 28.2503 25.8176 27.7823V27.807Z" fill="#231F20"/>
<path d="M18.6249 31.872C17.918 31.8966 17.2354 31.6749 16.699 31.1823C15.6751 30.271 15.0656 28.5715 14.9681 26.2316C14.7975 22.5863 15.8458 20.6405 18.0886 20.4434C19.015 20.3695 19.9658 20.7143 20.7703 21.4286C21.8673 22.4139 22.5256 23.9163 22.5987 25.6651C22.745 28.7932 20.9409 31.6996 18.7468 31.872C18.7225 31.872 18.6737 31.872 18.6493 31.872H18.6249ZM18.2593 21.8473C18.2593 21.8473 18.2105 21.8473 18.1861 21.8473C17.6254 21.8966 16.1627 22.0198 16.3333 26.1577C16.4309 28.0296 16.8697 29.4828 17.601 30.1232C17.8936 30.3941 18.2105 30.4927 18.6006 30.468C19.8683 30.3695 21.3066 28.2267 21.1847 25.739C21.1116 24.3597 20.6484 23.2267 19.8195 22.5124C19.3319 22.069 18.7712 21.8473 18.2349 21.872L18.2593 21.8473Z" fill="white"/>
<path d="M31.7416 15.3449C31.1078 14.4582 29.9132 14.1627 28.9624 14.6553C28.0117 15.1479 27.5485 16.3055 27.9141 17.34C28.0848 17.808 28.1579 18.3991 28.1823 19.138C27.5728 18.276 27.0853 17.6848 26.9877 17.537C26.2808 16.6504 24.9887 16.4533 24.0623 17.1183C23.1359 17.7834 22.8677 19.0641 23.4528 20.0494C25.8176 24.0149 24.4036 27.3893 24.3548 27.5371C23.8673 28.6454 24.3548 29.9508 25.4519 30.4435C25.72 30.5666 26.037 30.6405 26.3539 30.6405C26.3783 30.6405 26.427 30.6405 26.4514 30.6405C27.2803 30.5912 27.9873 30.0986 28.3286 29.3597C28.3773 29.2366 28.5724 28.7686 28.7674 28.005C28.8893 28.0297 29.0112 28.0543 29.1331 28.0543C29.7669 28.1036 30.3764 27.8819 30.8152 27.4385C30.9371 27.4878 31.0346 27.5124 31.1565 27.5371C31.7172 27.6602 32.3023 27.5371 32.7899 27.2169C33.2775 26.8967 33.6188 26.404 33.7163 25.8129C34.8621 20.0494 32.0585 15.7883 31.7416 15.3449Z" fill="#231F20"/>
<path d="M26.3776 28.9911C26.3776 28.9911 26.2069 28.9911 26.1338 28.9419C25.8413 28.8187 25.7194 28.4739 25.8413 28.2029C25.9144 28.0305 27.6697 23.9172 24.8417 19.2128C24.6955 18.9665 24.7686 18.6217 24.988 18.4492C25.2074 18.2768 25.5487 18.3261 25.7437 18.5478C25.8656 18.6956 28.0841 21.4788 29.2299 23.9172C29.6687 21.9714 30.1807 18.8187 29.4493 16.7744C29.3518 16.5034 29.4493 16.2079 29.7175 16.0847C29.9613 15.9616 30.2782 16.0355 30.4245 16.2571C30.5464 16.4295 33.1793 20.2965 32.131 25.469C32.0579 25.7645 31.7653 25.9616 31.4728 25.9123C31.1802 25.8384 30.9852 25.5428 31.0339 25.2473C31.424 23.3261 31.229 21.602 30.8877 20.2226C30.7414 23.0798 29.8638 25.8384 29.815 26.0108C29.7419 26.2571 29.4981 26.4295 29.2543 26.4049C28.9861 26.4049 28.7911 26.1832 28.7423 25.9369C28.5961 25.0749 28.0353 23.9419 27.3771 22.8581C27.9378 26.1093 26.8895 28.4985 26.8408 28.6463C26.7433 28.8433 26.5726 28.9665 26.3532 28.9665L26.3776 28.9911Z" fill="white"/>
<path d="M36.6758 29.207C36.7412 28.7354 36.5131 28.3135 36.1664 28.2644C35.8197 28.2154 35.4857 28.5579 35.4204 29.0294C35.355 29.5009 35.5831 29.9229 35.9298 29.9719C36.2765 30.0209 36.6105 29.6785 36.6758 29.207Z" fill="white"/>
<path d="M34.6027 23.5633C34.6361 23.1157 34.402 22.7329 34.0798 22.7083C33.7576 22.6837 33.4693 23.0266 33.4358 23.4743C33.4023 23.9219 33.6364 24.3047 33.9586 24.3293C34.2808 24.3539 34.5692 24.0109 34.6027 23.5633Z" fill="white"/>
</g>
</g>
</svg>
