<svg width="149" height="30" viewBox="0 0 149 30" fill="none" xmlns="http://www.w3.org/2000/svg">
<g style="mix-blend-mode:luminosity" clip-path="url(#clip0_1212_496)">
<path d="M9.10019 6.1579H15.789V18.7434C15.789 21.3947 13.6207 23.5658 10.9728 23.5658H10.7034C8.43 23.4342 6.58367 21.7434 6.23544 19.5461C6.18287 19.2763 6.15659 19.0132 6.15659 18.7434H0C0 22.4145 1.79376 25.6513 4.54681 27.6316C6.288 28.8882 8.40371 29.6382 10.7034 29.7171H10.9728C15.3093 29.7171 19.0545 27.1974 20.822 23.5592C21.5448 22.1118 21.9456 20.4803 21.9456 18.7368V0H9.10019V6.1579Z" fill="#201716"/>
<path d="M38.5426 10.0392C37.1497 9.3418 35.599 8.9668 33.9367 8.9668C28.1809 8.9668 23.4961 13.651 23.4961 19.4076C23.4961 25.1642 28.1809 29.8484 33.9367 29.8484C35.599 29.8484 37.1497 29.4734 38.5426 28.776V29.7102H44.5941V9.10495H38.5426V10.0392ZM34.4229 23.9668C31.8801 23.9668 29.8169 21.9076 29.8169 19.3615C29.8169 16.8155 31.8801 14.7563 34.4229 14.7563C36.9657 14.7563 39.0288 16.8155 39.0288 19.3615C39.0288 21.9076 36.9657 23.9668 34.4229 23.9668Z" fill="#201716"/>
<path d="M82.8151 10.0395C81.4221 9.3421 79.8715 8.9671 78.2091 8.9671C72.4533 8.9671 67.7686 13.6513 67.7686 19.4079C67.7686 25.1645 72.4533 29.8487 78.2091 29.8487C79.8715 29.8487 81.4221 29.4737 82.8151 28.7763V29.7105H88.8665V0H82.8151V10.0395ZM78.6953 23.9671C76.1526 23.9671 74.0894 21.9079 74.0894 19.3618C74.0894 16.8158 76.1526 14.7566 78.6953 14.7566C81.2381 14.7566 83.3013 16.8158 83.3013 19.3618C83.3013 21.9079 81.2381 23.9671 78.6953 23.9671Z" fill="#201716"/>
<path d="M105.299 10.0392C103.906 9.3418 102.356 8.9668 100.693 8.9668C94.9375 8.9668 90.2593 13.651 90.2593 19.4076C90.2593 25.1642 94.9441 29.8484 100.693 29.8484C102.356 29.8484 103.906 29.4734 105.299 28.776V29.7102H111.351V9.10495H105.299V10.0392ZM101.18 23.9668C98.6367 23.9668 96.5736 21.9076 96.5736 19.3615C96.5736 16.8155 98.6367 14.7563 101.18 14.7563C103.722 14.7563 105.785 16.8155 105.785 19.3615C105.785 21.9076 103.722 23.9668 101.18 23.9668Z" fill="#201716"/>
<path d="M146.056 12.2113C145.176 11.3297 144.184 10.6324 143.139 10.1521C140.274 8.78368 136.904 8.78368 134.039 10.1521C132.994 10.6324 132.035 11.3034 131.174 12.1587C131.148 12.1324 131.095 12.0797 131.069 12.0534C130.189 11.1718 129.197 10.5008 128.152 9.99421C125.425 8.685 122.212 8.62579 119.426 9.81V9.11263H113.27V29.7311H119.426V17.6521C119.643 17.1455 119.958 16.685 120.366 16.2574C122.133 14.4876 125.024 14.4876 126.792 16.2574C127.462 16.9284 127.863 17.7311 128.047 18.5863C128.099 18.8824 128.126 19.1784 128.126 19.4679V29.7245H134.013V19.4679C134.013 19.1982 134.065 18.9613 134.118 18.6916C134.308 17.8889 134.709 17.0863 135.347 16.4679C137.114 14.6982 140.005 14.6982 141.766 16.4679C142.653 17.3495 143.106 18.5271 143.106 19.6784V29.7179H148.994V17.9876C148.672 15.8692 147.686 13.8363 146.05 12.2047L146.056 12.2113Z" fill="#201716"/>
<path d="M60.9945 21.9601C60.7842 22.3285 60.5214 22.6772 60.2126 22.993C58.905 24.3022 57.5712 24.8417 55.9154 24.3877L65.6858 13.9864C65.2587 13.2759 64.7397 12.6114 64.1352 12.0062C63.5307 11.4009 62.8671 10.8812 62.1574 10.4535C58.11 7.97984 52.7484 8.49958 49.2398 12.0062C45.7377 15.5193 45.2317 20.8812 47.6891 24.9404C48.1162 25.6443 48.6353 26.3154 49.2398 26.9206C49.8443 27.5259 50.5144 28.0456 51.2175 28.4733C55.2781 30.9338 60.6265 30.4272 64.1352 26.9206C65.0748 25.9798 65.7975 24.9141 66.3034 23.7693L60.9945 21.9601ZM53.1624 15.9338C54.4699 14.6246 56.3097 14.1904 57.9654 14.6443L51.8745 20.743C51.4212 19.0851 51.8548 17.2364 53.1624 15.9338Z" fill="#201716"/>
</g>
<defs>
<clipPath id="clip0_1212_496">
<rect width="149" height="30" fill="white"/>
</clipPath>
</defs>
</svg>
