<svg viewBox="0 0 232 183" fill="none" xmlns="http://www.w3.org/2000/svg">
  <g clip-path="url(#clip0_80_9724)">
    <path d="M117.971 5.01005C132.351 10.2401 143.451 19.6 149.731 28.71C155.241 36.7001 159.551 44.76 168.231 50.62C184.351 61.51 216.021 62.5301 227.781 90.1301C233.671 103.95 231.411 118.02 222.261 130.22C216.071 138.48 201.631 147.36 184.211 152.3C152.211 161.37 135.231 156.14 130.031 160C125.531 163.34 122.921 174.09 111.301 181.06C107.261 183.48 101.961 183.26 103.461 178.15C105.201 172.2 107.531 163.62 102.881 159.56C97.0405 154.45 57.2706 163.48 23.7106 136.9C-7.29945 112.34 -7.09945 65.0201 19.7906 32.75C45.9206 1.38005 86.3905 -6.46995 117.971 5.01005Z" fill="#22D4DD"/>
  </g>
  <defs>
    <clipPath id="clip0_80_9724">
      <rect width="231.03" height="182.56" fill="white"/>
    </clipPath>
  </defs>
</svg>