<svg width="24" height="24" viewBox="0 0 24 24" fill="none" xmlns="http://www.w3.org/2000/svg">
<path d="M7.79333 21.4256C7.0359 21.4258 6.28596 21.2811 5.58618 21C4.88641 20.719 4.2509 20.3076 3.71547 19.7881C3.18004 19.2686 2.75507 18.6512 2.46562 17.9725C2.17617 17.2937 2.02776 16.5667 2.02842 15.8322V7.64626C2.02864 6.91232 2.17822 6.18555 2.46806 5.50757C2.7579 4.82958 3.18257 4.21237 3.71791 3.69355C4.25325 3.17473 4.88847 2.76382 5.58781 2.48315C6.28715 2.20248 7.03646 2.05741 7.79333 2.05762H16.2351C16.992 2.05719 17.7428 2.20256 18.4422 2.48315C19.1417 2.76374 19.7759 3.17469 20.3113 3.69355C20.8467 4.21241 21.2714 4.82791 21.5612 5.50599C21.8509 6.18407 22 6.91226 22 7.64626V15.8322C22.0008 16.5667 21.8522 17.2937 21.5628 17.9725C21.2734 18.6512 20.85 19.2685 20.3146 19.7881C19.7791 20.3076 19.1421 20.719 18.4422 21C17.7424 21.2811 16.9925 21.4259 16.2351 21.4256H7.79333ZM3.86662 7.59897V15.9819C3.86662 16.9664 4.27021 17.9099 4.98808 18.606C5.70594 19.3022 6.67897 19.6935 7.69418 19.6935H16.3375C17.3527 19.6935 18.3274 19.3022 19.0452 18.606C19.7631 17.9099 20.1667 16.9664 20.1667 15.9819V7.59897C20.1667 6.61452 19.7631 5.67098 19.0452 4.97487C18.3274 4.27875 17.3527 3.8874 16.3375 3.8874H7.69012C6.67505 3.88847 5.70189 4.27975 4.98482 4.97644C4.26776 5.67314 3.86574 6.61781 3.86662 7.60213V7.59897ZM6.83115 11.7897C6.83148 10.7958 7.13592 9.82314 7.70556 8.99692C8.2752 8.1707 9.08437 7.5268 10.0314 7.14665C10.9783 6.7665 12.0199 6.66736 13.0251 6.86139C14.0303 7.05542 14.9546 7.53445 15.6792 8.23727C16.4039 8.94009 16.8966 9.83618 17.0965 10.8109C17.2964 11.7857 17.1945 12.7958 16.8023 13.714C16.4101 14.6322 15.7464 15.4171 14.8942 15.9693C14.0421 16.5216 13.0391 16.8155 12.0142 16.8157C11.3337 16.816 10.6602 16.6865 10.0314 16.4343C9.40254 16.182 8.83215 15.8133 8.3508 15.3468C7.86945 14.8803 7.48667 14.3252 7.2261 13.7156C6.96553 13.106 6.83126 12.4527 6.83115 11.7928V11.7897ZM8.65473 11.7897C8.65473 12.434 8.8512 13.0633 9.22033 13.599C9.58947 14.1347 10.1148 14.5518 10.7286 14.7983C11.3425 15.0449 12.0175 15.11 12.6692 14.9843C13.3209 14.8586 13.9206 14.5478 14.3904 14.0923C14.8602 13.6367 15.1791 13.0567 15.3087 12.4248C15.4383 11.7929 15.3728 11.1383 15.1185 10.543C14.8643 9.94777 14.4325 9.4384 13.88 9.08045C13.3276 8.7225 12.6786 8.53199 12.0142 8.53199C11.5728 8.5322 11.1364 8.61697 10.7286 8.781C10.3209 8.94504 9.94999 9.18419 9.63803 9.48707C9.32607 9.78995 9.07856 10.1506 8.9099 10.5462C8.74125 10.9418 8.6544 11.3647 8.65473 11.7928V11.7897ZM16.162 6.5714C16.1623 6.33982 16.2338 6.11286 16.3667 5.92049C16.4997 5.72812 16.6872 5.57856 16.908 5.49023C17.1287 5.40191 17.3727 5.37855 17.6068 5.42404C17.841 5.46953 18.0558 5.58158 18.2244 5.74555C18.3931 5.90952 18.5081 6.11884 18.5544 6.34602C18.6006 6.57321 18.5762 6.80832 18.4845 7.02214C18.3928 7.23597 18.2379 7.41858 18.0392 7.54697C17.8404 7.67536 17.6067 7.74429 17.3679 7.74397C17.049 7.74355 16.7422 7.62028 16.5163 7.40197C16.2904 7.18366 16.1635 6.88697 16.162 6.5777V6.5714Z" fill="#111111"/>
</svg>
