<svg width="24" height="24" viewBox="0 0 24 24" fill="none" xmlns="http://www.w3.org/2000/svg">
<path fill-rule="evenodd" clip-rule="evenodd" d="M7.65001 4.0001C7.65001 3.8068 7.80671 3.6501 8.00001 3.6501H16C16.1933 3.6501 16.35 3.8068 16.35 4.0001V8.3501H7.65001V4.0001ZM6.35001 8.3501V4.0001C6.35001 3.08883 7.08874 2.3501 8.00001 2.3501H16C16.9113 2.3501 17.65 3.08883 17.65 4.0001V8.3501H18C20.0158 8.3501 21.65 9.98426 21.65 12.0001V18.0001C21.65 18.9114 20.9113 19.6501 20 19.6501H18.4472L18.4621 19.7456C18.6183 20.7462 17.8445 21.6501 16.8318 21.6501H7.16822C6.15549 21.6501 5.38177 20.7462 5.53796 19.7456L5.55287 19.6501H4.00001C3.08874 19.6501 2.35001 18.9114 2.35001 18.0001V12.0001C2.35001 9.98426 3.98417 8.3501 6.00001 8.3501H6.35001ZM5.75579 18.3501L6.16233 15.7456C6.28772 14.9423 6.97957 14.3501 7.79259 14.3501H16.2074C17.0205 14.3501 17.7123 14.9423 17.8377 15.7456L18.2442 18.3501H20C20.1933 18.3501 20.35 18.1934 20.35 18.0001V12.0001C20.35 10.7022 19.2979 9.6501 18 9.6501H17H7.00001H6.00001C4.70214 9.6501 3.65001 10.7022 3.65001 12.0001V18.0001C3.65001 18.1934 3.80671 18.3501 4.00001 18.3501H5.75579ZM7.79259 15.6501C7.62013 15.6501 7.47337 15.7757 7.44678 15.9461L6.8224 19.9461C6.78927 20.1584 6.9534 20.3501 7.16822 20.3501H16.8318C17.0466 20.3501 17.2108 20.1584 17.1776 19.9461L16.5533 15.9461C16.5267 15.7757 16.3799 15.6501 16.2074 15.6501H7.79259Z" fill="#111111"/>
</svg>
