<svg width="24" height="24" viewBox="0 0 24 24" fill="none" xmlns="http://www.w3.org/2000/svg">
<path fill-rule="evenodd" clip-rule="evenodd" d="M4.45963 3.54048C4.20578 3.28664 3.79423 3.28664 3.54039 3.54048C3.28655 3.79432 3.28655 4.20588 3.54039 4.45972L11.0808 12.0001L3.54046 19.5405C3.28662 19.7943 3.28662 20.2059 3.54046 20.4597C3.7943 20.7135 4.20586 20.7135 4.4597 20.4597L12 12.9194L19.5404 20.4597C19.7942 20.7135 20.2058 20.7135 20.4596 20.4597C20.7134 20.2058 20.7134 19.7943 20.4596 19.5405L12.9193 12.0001L20.4597 4.45972C20.7135 4.20588 20.7135 3.79432 20.4597 3.54048C20.2058 3.28664 19.7943 3.28664 19.5404 3.54048L12 11.0809L4.45963 3.54048Z" fill="#111111"/>
</svg>
