<svg width="24" height="24" viewBox="0 0 24 24" fill="none" xmlns="http://www.w3.org/2000/svg">
<path d="M19.0004 4.3501C20.4638 4.35031 21.6498 5.53706 21.6498 7.00049V17.0005C21.6496 18.4637 20.4636 19.6497 19.0004 19.6499H5.0004C3.53697 19.6499 2.35022 18.4639 2.35001 17.0005V7.00049C2.35001 5.53693 3.53684 4.3501 5.0004 4.3501H19.0004ZM5.0004 5.6499C4.25481 5.6499 3.64981 6.2549 3.64981 7.00049V17.0005C3.65002 17.7459 4.25494 18.3501 5.0004 18.3501H19.0004C19.7457 18.3499 20.3498 17.7458 20.35 17.0005V7.00049C20.35 6.25503 19.7458 5.65011 19.0004 5.6499H5.0004ZM18.3607 10.5405L12.3607 14.5405C12.1424 14.6861 11.8574 14.6861 11.6391 14.5405L5.63907 10.5405L6.36075 9.45947L12.0004 13.2192L17.6391 9.45947L18.3607 10.5405Z" fill="#111111"/>
</svg>
