<svg width="24" height="24" viewBox="0 0 24 24" fill="none" xmlns="http://www.w3.org/2000/svg">
<path fill-rule="evenodd" clip-rule="evenodd" d="M7.29773 4.29784C8.54485 3.05072 10.2363 2.3501 12 2.3501C13.7637 2.3501 15.4551 3.05072 16.7023 4.29784C17.9494 5.54495 18.65 7.23641 18.65 9.0001C18.65 13.0112 19.6614 15.2702 20.4368 16.4172C20.7462 16.8749 20.6689 17.4358 20.5089 17.8036C20.3526 18.1632 19.9726 18.6501 19.3486 18.6501H4.65138C4.0274 18.6501 3.64743 18.1632 3.49104 17.8036C3.33114 17.4358 3.25382 16.8749 3.56322 16.4172C4.33864 15.2702 5.35 13.0112 5.35 9.0001C5.35 7.23641 6.05062 5.54495 7.29773 4.29784ZM10.1629 19.591C10.0287 19.4572 9.91002 19.3094 9.80864 19.1505L8.71271 19.8497C8.865 20.0884 9.04328 20.3103 9.24471 20.5113C9.60666 20.8725 10.0363 21.1588 10.509 21.3542C10.9817 21.5496 11.4883 21.6501 11.9999 21.6501C12.5115 21.6501 13.0181 21.5496 13.4908 21.3542C13.9635 21.1588 14.3932 20.8725 14.7551 20.5113C14.9565 20.3103 15.1348 20.0884 15.2871 19.8497L14.1912 19.1505C14.0898 19.3094 13.9711 19.4572 13.8369 19.591C13.5958 19.8316 13.3095 20.0225 12.9943 20.1528C12.6791 20.283 12.3412 20.3501 11.9999 20.3501C11.6586 20.3501 11.3207 20.283 11.0055 20.1528C10.6903 20.0225 10.404 19.8316 10.1629 19.591Z" fill="#111111"/>
</svg>
